<svg width="72" height="72" viewBox="0 0 24 24" fill="none" xmlns="http://www.w3.org/2000/svg">
<path d="M17.4301 6.65978C16.6043 5.91456 15.6818 5.35866 14.7029 4.98L15.6254 2.58319C12.3222 1.31429 8.43899 2.12799 5.92938 4.90749C4.88606 6.0636 4.20932 7.42112 3.88706 8.83504C3.19822 11.8442 4.12069 15.1272 6.5739 17.3387C7.3997 18.0839 8.33022 18.6439 9.31312 19.0225L8.39065 21.4234C11.6898 22.6842 15.565 21.8745 18.0706 19.091C19.1139 17.9349 19.7906 16.5814 20.1129 15.1634C20.8017 12.1543 19.8792 8.8713 17.426 6.65978H17.4301ZM15.573 16.8271C14.0262 18.5431 11.6374 19.0427 9.59912 18.2733C8.98683 18.0396 8.40676 17.6932 7.89114 17.2259C5.65949 15.2158 5.48225 11.7757 7.49235 9.54402C9.04725 7.81992 11.4562 7.32042 13.4985 8.11399C14.0987 8.34762 14.6667 8.69003 15.1742 9.14522C17.4059 11.1553 17.5831 14.5955 15.573 16.8271Z" fill="#00323E" fill-opacity="0.95"/>
</svg>